<svg width="258" height="71" viewBox="0 0 258 71" fill="none" xmlns="http://www.w3.org/2000/svg">
<g filter="url(#filter0_d_178_21)">
<path fill-rule="evenodd" clip-rule="evenodd" d="M35.4699 0.0979932C33.3022 0.57571 31.6869 1.97817 30.759 4.18791C30.4128 5.01238 29.9789 6.16699 29.7946 6.75378C29.6104 7.34057 29.3825 7.84526 29.2885 7.87516C29.1943 7.90507 28.9296 7.63982 28.7004 7.28564C25.853 2.88845 21.9597 1.19436 19.1052 3.11089C17.8014 3.98619 17.2989 4.96058 17.2948 6.62028C17.2905 8.43947 17.7967 9.7444 19.2453 11.6474C19.9118 12.5229 20.406 13.2907 20.3432 13.3533C20.2805 13.416 19.6783 13.3273 19.0047 13.156C16.3706 12.486 15.4986 12.5661 15.1394 13.5114C14.887 14.175 15.2285 14.9688 16.3352 16.2899C17.89 18.1461 20.2426 19.6504 22.3294 20.1226C23.4283 20.3713 23.4505 20.3898 23.5465 21.1365C23.6206 21.7127 23.793 21.9973 24.2574 22.3093C25.9676 23.4586 31.3706 23.9045 33.1243 23.0413C33.8792 22.6697 34.2035 22.6252 35.4107 22.7266C37.722 22.9213 40.3321 22.1998 42.6265 20.7321C44.4416 19.571 44.7076 18.4899 43.1785 18.4899C42.8215 18.4899 42.4883 18.4227 42.4375 18.3406C42.3866 18.2585 43.0115 17.8406 43.8262 17.4121C46.8 15.8478 48.9509 13.1418 48.955 10.9592C48.9574 9.79033 48.5887 9.17872 47.6445 8.78427C46.6716 8.3777 45.5063 8.61343 43.0944 9.70393C41.9648 10.2147 41.0188 10.6121 40.9922 10.5872C40.9656 10.5622 41.1771 9.88924 41.4625 9.09174C42.4943 6.20706 42.0915 3.06965 40.4902 1.5202C39.309 0.377313 37.0747 -0.255603 35.4699 0.0979932ZM34.4777 3.79737C33.3825 4.49205 32.6095 5.8953 31.7744 8.70511C30.7113 12.2813 29.8661 12.5464 27.8284 9.94201C24.8464 6.13083 23.9423 5.40644 22.1558 5.39803C21.0911 5.39295 20.3165 5.90566 19.9068 6.8863C19.2697 8.41054 19.8366 9.9426 21.9087 12.297C23.3933 13.9838 24.1329 14.9457 24.1329 15.1891C24.1329 15.2768 23.9781 15.4317 23.7887 15.5329C23.4023 15.7397 22.2875 15.5826 19.4879 14.9266C17.8208 14.536 17.6521 14.5274 17.3612 14.8181C16.9394 15.2401 17.1314 15.9483 17.9077 16.8324C18.9863 18.0609 20.9656 18.9766 23.8397 19.5771C25.4515 19.9139 26.283 20.2233 26.283 20.4864C26.283 20.5908 26.1091 20.8972 25.8964 21.1676C25.2834 21.9469 25.6378 22.3159 27.3688 22.701C29.4994 23.175 31.104 23.0362 32.0747 22.2937C32.7285 21.7935 32.9636 21.7252 33.8084 21.7895C37.6585 22.0831 39.8552 21.7917 41.3311 20.7917C42.2195 20.1899 42.2615 19.9188 41.4908 19.7645C40.412 19.5483 38.9883 19.054 38.9883 18.8955C38.9883 18.5769 39.7502 18.0851 41.1151 17.5222C42.6448 16.8914 44.6605 15.7508 45.4173 15.0878C46.1325 14.4612 47.0023 13.0007 47.0023 12.4264C47.0023 12.133 46.7959 11.7184 46.5219 11.461C45.8219 10.8032 44.8342 10.9919 41.9202 12.3396C39.1323 13.6293 37.9597 13.8337 37.8487 13.0503C37.8133 12.7999 38.1652 11.5685 38.6306 10.3138C39.3569 8.35601 39.4769 7.81985 39.4769 6.53349C39.4769 5.20609 39.421 4.97348 38.9883 4.50417C37.7789 3.19201 35.8974 2.89705 34.4777 3.79737ZM229.995 7.158C228.843 7.86011 228.492 9.615 229.279 10.7383C230.307 12.2061 232.736 12.2061 233.764 10.7383C234.551 9.615 234.2 7.86011 233.048 7.158C232.197 6.63904 230.846 6.63904 229.995 7.158ZM175.815 19.2229C175.816 25.9813 175.891 30.1924 176.018 30.6515C176.46 32.2444 178.034 33.3711 179.84 33.3873C180.416 33.3924 181.153 33.2864 181.478 33.1517C182.068 32.9074 182.069 32.9037 182.069 31.303V29.699L181.475 29.7862C181.082 29.8439 180.75 29.7557 180.497 29.5266C180.126 29.1906 180.114 28.8625 180.114 18.8505V8.52118H177.964H175.814L175.815 19.2229ZM185.327 9.62888C185.255 9.70042 185.196 10.9758 185.196 12.4631V15.167H183.535H181.873V17.0239V18.8808H183.535H185.196L185.2 23.0345C185.204 28.0458 185.43 29.4137 186.517 30.9985C187.104 31.8537 187.522 32.2094 188.574 32.7446C189.754 33.3453 190.057 33.4158 191.422 33.407C192.262 33.4017 193.272 33.2907 193.666 33.1605L194.383 32.924V31.1146V29.3052L192.823 29.3955C191.06 29.4975 190.539 29.287 189.879 28.2037C189.531 27.634 189.498 27.1959 189.497 23.2299L189.496 18.8808H191.94H194.383V17.0239V15.167H191.94H189.496V12.3327V9.4985H187.477C186.366 9.4985 185.398 9.55714 185.327 9.62888ZM92.6808 14.874C89.2527 15.8163 86.4967 18.6433 85.7199 22.0137C84.8073 25.9743 86.8327 30.3738 90.3966 32.1729C92.8575 33.4152 95.9349 33.6932 98.2363 32.8806C99.8403 32.3146 101.521 31.2157 102.398 30.1592L103.066 29.3556L104.413 30.6267C106.515 32.6093 108.358 33.3453 111.223 33.3453C115.642 33.3453 118.898 31.0519 120.325 26.9344C120.862 25.3832 120.857 22.7497 120.312 21.0007C119.466 18.2839 117.065 15.9064 114.324 15.07C110.71 13.9678 106.966 14.8413 104.383 17.3888C102.866 18.8855 102.216 20.1996 101.634 22.9473C101.119 25.3812 100.523 26.6834 99.4527 27.7161C97.2541 29.8369 93.5776 29.8812 91.398 27.8134C90.4304 26.8953 89.6142 25.0698 89.614 23.8238C89.6136 21.8052 90.8884 19.7055 92.6509 18.8208C94.0475 18.1197 96.4844 18.0648 98.1466 18.6967C98.8661 18.9704 98.9894 18.7086 98.9931 16.901C98.9961 15.4541 98.9801 15.4037 98.4586 15.2008C96.7381 14.5319 94.4054 14.3998 92.6808 14.874ZM130.171 14.9191C128.884 15.381 127.789 16.2346 127.108 17.3066L126.557 18.1756V16.6713V15.167H124.623C123.248 15.167 122.667 15.2376 122.611 15.4113C122.568 15.5458 122.536 19.5259 122.541 24.2561L122.55 32.8566L124.651 32.9121L126.752 32.9676V28.0093C126.752 25.0147 126.842 22.6017 126.98 21.917C127.834 17.665 132.702 16.5257 134.628 20.1271C135.042 20.9002 135.062 21.1793 135.119 26.9438L135.178 32.9543H137.318H139.457V26.936C139.457 20.5788 139.353 19.6146 138.48 17.9027C137.915 16.796 136.82 15.777 135.588 15.2133C134.139 14.5499 131.586 14.4111 130.171 14.9191ZM146.53 14.8859C144.582 15.4102 143.07 16.5827 142.457 18.0438C142.103 18.8898 142.124 20.8756 142.496 21.7675C143.102 23.218 144.024 23.8879 147.301 25.2591C150.352 26.5354 151.134 27.4117 150.294 28.6117C149.326 29.9942 145.91 30.1113 143.22 28.8544L141.998 28.2837V30.1426V32.0014L143.318 32.6095C144.411 33.1132 144.949 33.2325 146.454 33.305C151.409 33.5438 154.5 31.41 154.506 27.7479C154.51 25.1873 153.12 23.7129 149.273 22.199C146.559 21.1306 145.885 20.41 146.51 19.2424C147.127 18.0892 150.523 17.9496 152.993 18.976C153.305 19.1054 153.335 18.9537 153.335 17.2639C153.335 15.4223 153.332 15.4084 152.798 15.2008C151.045 14.5192 148.389 14.3857 146.53 14.8859ZM202.058 14.882C200.406 15.3269 199.069 16.1134 197.793 17.3912C194.888 20.2993 194.21 24.5419 196.057 28.2356C196.701 29.5223 198.177 31.1932 199.367 31.9815C200.287 32.5906 201.989 33.1762 203.341 33.3488C210.131 34.2153 215.588 27.458 213.35 20.9545C212.596 18.7622 210.781 16.639 208.802 15.634C206.845 14.6396 204.096 14.3331 202.058 14.882ZM224.029 14.9195C222.867 15.3066 221.407 16.5876 220.823 17.7319L220.385 18.5876L220.383 16.8773L220.38 15.167H218.328H216.275V24.0607V32.9543H218.414H220.553L220.613 27.3286C220.673 21.7342 220.676 21.6979 221.173 20.7334C221.92 19.2823 223.115 18.6085 225.101 18.5182C225.94 18.4801 226.892 18.5415 227.217 18.6547L227.808 18.8605V16.8412C227.808 14.9121 227.788 14.8163 227.368 14.7037C226.586 14.4942 224.997 14.5968 224.029 14.9195ZM241.853 15.0216C240.326 15.556 239.177 16.3099 238.222 17.4055C236.697 19.1551 235.684 22.3761 235.915 24.7448C236.358 29.2837 238.67 32.2899 242.467 33.2626C244.967 33.9031 247.876 33.0306 249.251 31.2274L249.895 30.383V31.6686V32.9543H251.948H254V24.0607V15.167H251.85H249.7V16.2426V17.3183L248.998 16.5417C247.368 14.7374 244.444 14.1152 241.853 15.0216ZM156.267 20.7018C156.267 23.8736 156.359 26.7319 156.481 27.3965C157.114 30.8269 159.482 32.9295 163.158 33.3243C167.411 33.7811 170.854 32.098 172.114 28.9459C172.568 27.8091 172.584 27.5882 172.646 21.4707L172.711 15.167H170.549H168.386L168.382 20.8843C168.378 26.0083 168.34 26.6836 168.019 27.3916C166.681 30.3361 162.535 30.3746 161.08 27.4561L160.568 26.4272V20.7972V15.167H158.418H156.267V20.7018ZM229.371 24.0607V32.9543H231.521H233.672V24.0607V15.167H231.521H229.371V24.0607ZM109.55 18.477C108.064 18.9291 106.884 19.9995 106.198 21.5196C105.595 22.8535 105.578 25.2307 106.161 26.5177C107.672 29.8496 112.104 30.7735 114.828 28.3243C116.164 27.1236 116.655 25.7892 116.543 23.6697C116.416 21.2673 115.424 19.7374 113.363 18.761C112.355 18.2841 110.612 18.1541 109.55 18.477ZM202.298 18.754C201.168 19.2802 200.168 20.3351 199.593 21.6074C199.022 22.8713 199.02 25.287 199.589 26.5218C200.486 28.47 202.457 29.6863 204.742 29.7024C206.199 29.7125 207.183 29.3411 208.212 28.3928C209.465 27.2376 209.876 26.3165 209.98 24.4256C210.087 22.4778 209.729 21.2503 208.705 20.0546C207.224 18.3239 204.436 17.7583 202.298 18.754ZM243.349 18.6074C242.92 18.7643 242.231 19.22 241.818 19.6197C240.367 21.0231 239.817 22.7851 240.133 25.0175C240.361 26.6295 240.834 27.5872 241.859 28.513C244.203 30.6306 247.968 29.9465 249.565 27.1127C250.329 25.7581 250.506 23.648 250.003 21.9172C249.594 20.5083 248.094 18.9017 246.843 18.5321C245.788 18.2204 244.321 18.2518 243.349 18.6074ZM27.879 31.3417C27.9394 36.1664 27.975 36.6232 28.3399 37.2546C28.8514 38.1396 30.2133 38.8511 31.2521 38.7759C32.2504 38.7037 32.3497 38.3521 31.4373 38.1209C30.1026 37.7827 29.9085 37.2622 29.8327 33.82L29.7664 30.8042H30.7611C31.7363 30.8042 31.7561 30.7925 31.7561 30.2178C31.7561 29.6445 31.7344 29.6314 30.7787 29.6314H29.8014V27.8722V26.113H28.8075H27.8137L27.879 31.3417ZM71.24 44.2913V62.0786H72.9992H74.7584V44.2913V26.504H72.9992H71.24V44.2913ZM9.22244 29.6386C6.6855 30.2723 5.95465 31.4936 5.95465 35.0982V37.45H6.93198H7.9093V35.0005C7.9093 32.3238 8.08718 31.6234 8.97498 30.8042C9.40207 30.4102 9.70641 30.3155 10.5481 30.3155C11.3898 30.3155 11.6941 30.4102 12.1212 30.8042C13.009 31.6234 13.1869 32.3238 13.1869 35.0005V37.45H14.1642H15.1415L15.1372 35.0556C15.1325 32.4575 14.8796 31.528 13.9429 30.667C12.9357 29.7409 10.7336 29.2612 9.22244 29.6386ZM47.3382 29.6496C45.0645 30.184 44.6671 30.9575 44.6611 34.8601L44.6568 37.6455H45.6341H46.6114V34.6308C46.6114 31.6727 46.621 31.6048 47.1175 31.0147C47.5237 30.5319 47.7742 30.4133 48.388 30.4133C49.0221 30.4133 49.1525 30.3466 49.1525 30.0223C49.1525 29.8073 49.0278 29.6314 48.8753 29.6314C48.7228 29.6314 48.4808 29.5964 48.3378 29.5536C48.1945 29.5108 47.7447 29.554 47.3382 29.6496ZM19.6372 29.9537C17.0248 30.8556 16.0704 33.1013 17.2862 35.4846C17.948 36.7821 19.4484 37.6455 21.0409 37.6455C21.9803 37.6455 23.1556 37.1746 23.1556 36.7983C23.1556 36.5736 22.9097 36.5374 21.9214 36.6168C20.2856 36.7481 19.5514 36.3795 19.0098 35.1549C18.7086 34.4741 18.6376 34.0083 18.7174 33.2362C18.9163 31.3089 19.775 30.3482 21.2987 30.3482C21.7654 30.3482 22.3724 30.4956 22.6474 30.6758C23.5997 31.2997 23.8233 32.0446 23.9027 34.8601L23.9758 37.45H24.9339H25.8921V35.4842C25.8921 33.082 25.6503 32.0515 24.8624 31.0958C23.726 29.7168 21.6423 29.2614 19.6372 29.9537ZM33.5152 32.1418C33.5152 35.2782 33.8084 35.9962 35.4748 36.9397C36.4302 37.4807 36.7127 37.5448 38.1087 37.538C39.3106 37.5319 39.8534 37.4348 40.4543 37.1181C42.267 36.1631 42.7021 35.1693 42.7021 31.9833V29.6314H41.7248H40.7475L40.7463 31.9281C40.7451 34.7178 40.5551 35.476 39.6609 36.2612C38.4048 37.364 36.6255 36.977 35.8808 35.4391C35.5295 34.7131 35.4699 34.2309 35.4699 32.1107V29.6314H34.4926H33.5152V32.1418ZM52.2226 29.9465C51.0428 30.3093 49.8346 31.4817 49.5495 32.5409C48.8905 34.9879 50.9376 37.6248 53.5078 37.64C54.5981 37.6465 55.7983 37.2033 55.7983 36.7944C55.7983 36.5652 55.5712 36.5304 54.6323 36.6156C52.6851 36.7921 51.7119 36.0657 51.4095 34.2102C50.9908 31.6406 53.0194 29.5849 55.0065 30.565C56.2035 31.1555 56.4728 31.9045 56.5504 34.8601L56.6185 37.45H57.5766H58.5348L58.5336 35.3488C58.5324 32.8453 58.3303 32.0075 57.4996 31.0614C56.3067 29.7028 54.3565 29.2907 52.2226 29.9465ZM98.6052 44.916V50.4273L98.0516 49.5544C97.4197 48.5579 96.5645 47.7866 95.4027 47.165C94.2375 46.5417 91.1085 46.5407 89.7602 47.1635C88.3749 47.8032 86.8284 49.3673 86.1685 50.796C85.6486 51.9217 85.6067 52.1867 85.6067 54.3578C85.6067 56.5837 85.6382 56.7696 86.2226 58.0034C86.9531 59.545 88.0414 60.6944 89.4605 61.4225C90.9216 62.1721 93.3415 62.2952 94.9201 61.7C96.1984 61.218 97.673 59.9987 98.2127 58.9772L98.588 58.2671L98.5966 59.9774L98.6052 61.6877H99.4847H100.364V50.5462V39.4047H99.4847H98.6052V44.916ZM129.536 47.5653C129.624 56.5505 129.636 56.6439 130.9 58.7489C132.089 60.7295 134.099 61.8408 136.819 62.0214C141.883 62.3578 145.616 58.2391 144.905 53.0999C144.619 51.0358 143.557 49.1267 142.067 47.9995C140.114 46.5218 136.566 46.1904 134.431 47.2864C133.24 47.8976 132.193 48.8873 131.65 49.9146L131.265 50.6439L131.256 45.0243L131.248 39.4047H130.352H129.455L129.536 47.5653ZM166.28 50.1715L166.334 60.9381L166.972 61.5085C167.657 62.1199 168.66 62.2624 169.644 61.8881C170.042 61.7366 170.145 61.565 170.145 61.0521C170.145 60.4166 170.133 60.408 169.36 60.4817C167.914 60.6197 167.995 61.2635 167.995 49.7405V39.4047H167.111H166.226L166.28 50.1715ZM109.21 46.9113C106.354 47.8413 104.495 50.3511 104.311 53.5245C104.2 55.4514 104.534 57.1746 105.3 58.6181C105.983 59.9055 106.863 60.6787 108.508 61.4393C110.151 62.1983 113.026 62.3079 115.064 61.6891C117.328 61.0014 117.565 60.8339 117.565 59.9195V59.1387L116.789 59.5345C114.729 60.5855 111.419 60.838 109.412 60.0974C107.473 59.382 106.033 57.384 106.033 55.4103V54.8464H112.089H118.144L118.263 54.3728C118.45 53.6289 117.994 51.1887 117.456 50.0513C116.885 48.8439 115.737 47.737 114.462 47.1645C113.315 46.6494 110.439 46.5108 109.21 46.9113ZM153.196 46.9205C151.201 47.5438 149.751 48.8212 148.867 50.7327C148.226 52.1193 148.051 55.1025 148.508 56.8499C149.382 60.1865 152.042 62.0712 155.876 62.0696C157.811 62.0691 158.866 61.858 160.421 61.1609C161.51 60.6727 161.545 60.6334 161.545 59.8978V59.1387L160.769 59.5345C158.81 60.5343 155.312 60.84 153.454 60.1742C151.576 59.5008 150.272 57.8427 149.918 55.6772L149.783 54.8464H155.981H162.179L162.095 53.0949C162.023 51.5771 161.922 51.1672 161.339 50.0237C160.557 48.4911 159.277 47.3875 157.747 46.927C156.574 46.5739 154.315 46.5706 153.196 46.9205ZM177.427 46.9113C174.58 47.8386 172.761 50.2835 172.542 53.4793C172.289 57.177 173.607 59.898 176.303 61.2442C178.424 62.3036 181.901 62.356 184.317 61.365L185.685 60.8036L185.745 59.9651L185.806 59.1267L185.061 59.5061C183.713 60.1926 182.249 60.5149 180.477 60.5149C178.359 60.5149 176.883 60.0198 175.814 58.9512C175.033 58.1705 174.25 56.4062 174.25 55.4283V54.8519L180.358 54.8003L186.467 54.7487L186.434 53.2827C186.371 50.4971 185.116 48.3728 182.889 47.2835C181.987 46.8423 181.49 46.7399 180.027 46.6951C178.908 46.6609 177.952 46.7405 177.427 46.9113ZM208.314 47.019C205.509 48.0284 203.814 50.4692 203.618 53.7774C203.411 57.2899 204.917 60.1451 207.675 61.4661C208.615 61.9162 208.995 61.9809 210.704 61.9807C212.451 61.9807 212.766 61.9244 213.661 61.452C214.84 60.8304 215.75 59.969 216.273 58.9788L216.649 58.2671L216.658 59.9774L216.666 61.6877H217.546H218.425V54.3578V47.0278H217.546H216.666L216.665 48.7381L216.665 50.4485L216.255 49.7643C215.559 48.6023 214.663 47.786 213.441 47.1996C212.463 46.7309 212.024 46.6383 210.802 46.6441C209.875 46.6484 208.96 46.7862 208.314 47.019ZM189.692 47.7119V48.3961H193.894C196.206 48.3961 198.097 48.45 198.097 48.5159C198.097 48.5818 196.074 51.486 193.601 54.9694C191.129 58.4528 189.106 61.3896 189.106 61.4954C189.106 61.6173 191.287 61.6877 195.067 61.6877H201.029V60.9094V60.131L196.47 60.0786L191.911 60.0263L196.364 53.6736C198.814 50.1797 200.821 47.255 200.826 47.1744C200.83 47.0939 198.327 47.0278 195.263 47.0278H189.692V47.7119ZM91.7066 48.2086C90.5381 48.4051 89.0348 49.3521 88.3747 50.3079C87.4191 51.6916 87.1876 52.4831 87.1853 54.3748C87.1833 55.9864 87.242 56.2706 87.8188 57.4424C88.8473 59.5313 90.4509 60.5149 92.8288 60.5149C95.2213 60.5149 97.1167 59.3472 98.1544 57.2338C98.6349 56.2553 98.7019 55.8988 98.6951 54.3578C98.6888 52.9535 98.5958 52.3929 98.2342 51.5794C97.7318 50.4492 96.275 48.9618 95.2535 48.536C94.3534 48.1607 92.829 48.0202 91.7066 48.2086ZM110.04 48.1756C107.984 48.7192 106.386 50.5126 106.1 52.598L105.98 53.4782H111.311H116.643L116.534 52.4252C116.354 50.6854 115.45 49.3163 113.981 48.5609C113.154 48.1355 110.991 47.9242 110.04 48.1756ZM135.646 48.2667C133.884 48.8507 132.664 49.8853 131.806 51.5235C131.412 52.2768 131.346 52.6836 131.346 54.3578C131.346 56.0986 131.403 56.4193 131.866 57.2897C132.49 58.4623 133.381 59.3423 134.571 59.9604C135.321 60.3501 135.737 60.4172 137.405 60.4172C139.179 60.4172 139.443 60.3681 140.261 59.8871C142.19 58.7532 143.199 57.0591 143.322 54.7487C143.424 52.8265 142.961 51.4195 141.789 50.0886C140.322 48.4215 137.608 47.6166 135.646 48.2667ZM153.691 48.2653C152.646 48.561 151.603 49.2938 150.977 50.1727C150.49 50.8568 149.759 53.0313 149.926 53.3009C149.987 53.3998 152.373 53.4782 155.327 53.4782H160.618L160.484 52.468C160.237 50.6074 159.391 49.2876 157.985 48.5702C156.999 48.0673 154.915 47.9193 153.691 48.2653ZM178.257 48.1744C177.34 48.4148 176.761 48.768 175.861 49.6342C175.018 50.4459 174.25 52.0483 174.25 52.9969V53.4782H179.555H184.86L184.751 52.4252C184.572 50.6854 183.667 49.3163 182.198 48.5609C181.372 48.1361 179.211 47.9242 178.257 48.1744ZM209.892 48.2088C208.151 48.553 206.759 49.6412 205.902 51.3281C205.299 52.513 205.151 55.1129 205.599 56.6514C206.012 58.073 207.302 59.5247 208.678 60.1168C209.506 60.4725 209.968 60.5401 211.176 60.4823C214.505 60.3224 216.61 58.2086 216.818 54.8161C217.081 50.5194 213.841 47.4279 209.892 48.2088ZM38.0215 50.1803C36.1202 50.4987 34.3282 51.915 33.4777 53.7714C32.845 55.1523 32.8491 57.4921 33.4867 58.8005C35.783 63.5134 42.758 63.5182 45.0772 58.8085C45.7348 57.4731 45.7361 54.9381 45.0799 53.6736C44.1843 51.9481 42.3946 50.503 40.8452 50.2544C39.3235 50.0102 39.0751 50.0038 38.0215 50.1803ZM6.88155 56.1177C5.29672 59.2897 4 61.9285 4 61.9817C4 62.2176 5.90833 62.0501 6.29339 61.7806C6.52756 61.6166 7.05278 60.8632 7.46071 60.1064L8.2025 58.7307L8.93354 58.8429C10.5246 59.0872 11.8669 59.7661 13.0668 60.933L14.2449 62.0786H15.5735H16.9019L13.9687 56.2147L11.0356 50.3507H10.3993H9.7631L6.88155 56.1177ZM20.1075 55.2862C21.4302 58.0007 22.7185 60.6394 22.9707 61.1502C23.3706 61.9604 23.5063 62.0786 24.0366 62.0786C24.6394 62.0786 24.6667 62.0323 27.502 56.2147L30.3597 50.3507L29.2498 50.357C28.6388 50.3603 27.9863 50.4797 27.7981 50.6226C27.61 50.7655 26.6839 52.4889 25.74 54.453L24.0238 58.0235L22.278 54.3675C21.3178 52.3566 20.3806 50.6302 20.1953 50.5311C20.01 50.4319 19.3733 50.3507 18.7805 50.3507H17.7025L20.1075 55.2862ZM50.1298 56.2147V62.0786H50.9855C52.3069 62.0786 52.3634 61.9266 52.4754 58.0636L52.5731 54.6936L55.3096 57.9385C58.2381 61.4111 58.999 62.0786 60.0297 62.0786H60.6849V56.2147V50.3507H59.8356C58.4242 50.3507 58.3573 50.5286 58.2951 54.4418L58.2416 57.8286L55.1347 54.0896L52.0278 50.3507H51.0788H50.1298V56.2147ZM38.0453 52.5278C37.0788 52.8064 35.7893 54.1942 35.484 55.2849C34.7957 57.7432 36.6974 60.124 39.3495 60.124C41.6935 60.124 43.3362 58.4963 43.3182 56.191C43.2973 53.4944 40.7744 51.7417 38.0453 52.5278ZM9.80688 55.5349C9.51583 56.1285 9.27756 56.65 9.27756 56.6938C9.27756 56.7375 9.75801 56.9131 10.3454 57.0837C10.9328 57.2546 11.5555 57.4489 11.7293 57.5155C11.9527 57.6011 11.8106 57.1697 11.2457 56.0462C10.8059 55.1713 10.4212 54.4555 10.3911 54.4555C10.361 54.4555 10.0981 54.9412 9.80688 55.5349Z" fill="white"/>
</g>
<defs>
<filter id="filter0_d_178_21" x="0" y="0" width="258" height="70.338" filterUnits="userSpaceOnUse" color-interpolation-filters="sRGB">
<feFlood flood-opacity="0" result="BackgroundImageFix"/>
<feColorMatrix in="SourceAlpha" type="matrix" values="0 0 0 0 0 0 0 0 0 0 0 0 0 0 0 0 0 0 127 0" result="hardAlpha"/>
<feOffset dy="4"/>
<feGaussianBlur stdDeviation="2"/>
<feComposite in2="hardAlpha" operator="out"/>
<feColorMatrix type="matrix" values="0 0 0 0 0 0 0 0 0 0 0 0 0 0 0 0 0 0 0.25 0"/>
<feBlend mode="normal" in2="BackgroundImageFix" result="effect1_dropShadow_178_21"/>
<feBlend mode="normal" in="SourceGraphic" in2="effect1_dropShadow_178_21" result="shape"/>
</filter>
</defs>
</svg>
